<svg width="52" height="60" fill="none"
  xmlns="http://www.w3.org/2000/svg">
  <path fill-rule="evenodd" clip-rule="evenodd" d="M50.755 45.514L48.26 43.02a5.12 5.12 0 01-1.5-3.62v-18.36C46.76 9.73 37.59.56 26.28.56S5.8 9.73 5.8 21.04V39.4a5.12 5.12 0 01-1.5 3.62l-2.495 2.496A3.84 3.84 0 00.68 48.23v3.53h15.722a10.193 10.193 0 0019.756 0H51.88v-3.53a3.84 3.84 0 00-1.125-2.715zM26.28 56.88a7.669 7.669 0 01-7.208-5.12h14.416a7.669 7.669 0 01-7.208 5.12zM3.24 49.2h46.08v-.97c0-.339-.134-.665-.375-.904L46.45 44.83a7.633 7.633 0 01-2.25-5.432V21.04c0-9.896-8.023-17.92-17.92-17.92-9.897 0-17.92 8.024-17.92 17.92V39.4a7.632 7.632 0 01-2.25 5.43l-2.495 2.496c-.24.24-.376.565-.375.904v.97z" fill="#30CEC2" fill-opacity=".4"/>
</svg>