<svg width="96" height="30" viewBox="0 0 96 30" fill="none" xmlns="http://www.w3.org/2000/svg">
<path fill-rule="evenodd" clip-rule="evenodd" d="M18.6693 23.5187V0H12.1055V8.14974C11.4667 7.46524 10.7347 6.95188 9.90957 6.60963C9.08443 6.26738 8.16615 6.09626 7.15469 6.09626C5.07854 6.09626 3.36708 6.84492 2.02024 8.34225C0.673407 9.83958 0 12 0 14.8235C0 17.3476 0.609527 19.492 1.8286 21.2567C3.04767 23.0214 4.81237 23.9038 7.12275 23.9038C8.27262 23.9038 9.316 23.6578 10.2529 23.1658C10.9556 22.7915 11.7328 22.0695 12.5846 21V23.5187H18.6693ZM11.3069 11.9598C11.8712 12.6176 12.1534 13.6149 12.1534 14.9518C12.1534 16.4278 11.8765 17.4919 11.3229 18.1443C10.7693 18.7967 10.0772 19.1229 9.24676 19.1229C8.46953 19.1229 7.81742 18.7994 7.2904 18.1523C6.76337 17.5053 6.49987 16.4866 6.49987 15.0962C6.49987 13.6096 6.75539 12.5507 7.26644 11.9197C7.77749 11.2887 8.41098 10.9732 9.16691 10.9732C10.0293 10.9732 10.7426 11.3021 11.3069 11.9598ZM40.5006 23.5191H34.4319V20.7598C33.5269 21.8935 32.614 22.7009 31.693 23.1822C30.7721 23.6635 29.6409 23.9042 28.2993 23.9042C26.5107 23.9042 25.1079 23.3667 24.0912 22.2919C23.0744 21.217 22.566 19.5619 22.566 17.3266V6.48168H29.0979V15.8507C29.0979 16.9202 29.2948 17.6795 29.6888 18.1287C30.0827 18.5779 30.6363 18.8025 31.3497 18.8025C32.1269 18.8025 32.763 18.5031 33.2581 17.9042C33.7532 17.3052 34.0007 16.2304 34.0007 14.6795V6.48168H40.5006V23.5191ZM50.5619 6.48089H44.4932V23.5183H51.0091V14.8231C51.0091 13.529 51.2486 12.5985 51.7278 12.0317C52.2069 11.4648 52.8191 11.1814 53.5643 11.1814C54.0222 11.1814 54.4214 11.3124 54.7621 11.5745C55.1028 11.8365 55.3424 12.1814 55.4808 12.6092C55.566 12.8766 55.6085 13.3846 55.6085 14.1333V23.5183H62.1244V14.7269C62.1244 13.4969 62.3587 12.6039 62.8271 12.0477C63.2956 11.4916 63.9131 11.2135 64.6797 11.2135C65.3291 11.2135 65.8721 11.5076 66.3086 12.0959C66.6068 12.4702 66.7558 13.0424 66.7558 13.8124V23.5183H73.2717V12.8178C73.2717 10.5076 72.7606 8.80977 71.7385 7.7242C70.7164 6.63863 69.2951 6.09586 67.4745 6.09586C66.2394 6.09586 65.2014 6.29639 64.3603 6.69746C63.5192 7.09854 62.5876 7.85521 61.5655 8.96752C61.0651 8.01564 60.4209 7.29907 59.6331 6.81778C58.8452 6.3365 57.7752 6.09586 56.423 6.09586C55.1667 6.09586 54.094 6.31511 53.205 6.75361C52.316 7.19212 51.435 7.93008 50.5619 8.96752V6.48089ZM77.1844 29.9996V6.48089H83.2691V8.9996C84.1102 7.94077 84.8821 7.2242 85.5848 6.84987C86.5323 6.34719 87.581 6.09586 88.7309 6.09586C90.9987 6.09586 92.7528 6.96751 93.9931 8.71083C95.2335 10.4542 95.8537 12.6092 95.8537 15.1761C95.8537 18.0103 95.1776 20.1734 93.8254 21.6654C92.4733 23.1574 90.7645 23.9034 88.699 23.9034C87.6982 23.9034 86.7852 23.7322 85.9601 23.39C85.1349 23.0477 84.3976 22.5397 83.7482 21.8659V29.9996H77.1844ZM84.5467 18.0485C83.9824 17.3961 83.7003 16.3961 83.7003 15.0485C83.7003 13.5833 83.9771 12.5244 84.5307 11.872C85.0844 11.2196 85.7764 10.8934 86.6068 10.8934C87.3734 10.8934 88.0229 11.217 88.5552 11.864C89.0876 12.5111 89.3537 13.5244 89.3537 14.9041C89.3537 16.4015 89.0982 17.4629 88.5872 18.0886C88.0761 18.7143 87.4426 19.0271 86.6867 19.0271C85.8243 19.0271 85.111 18.7009 84.5467 18.0485Z" fill="white"/>
</svg>
