<svg width="27" height="25" fill="none"
  xmlns="http://www.w3.org/2000/svg">
  <path fill-rule="evenodd" clip-rule="evenodd" d="M24.5 3h-22A1.5 1.5 0 001 4.5v16A1.5 1.5 0 002.5 22h22a1.5 1.5 0 001.5-1.5v-16A1.5 1.5 0 0024.5 3zm.5 17.5a.5.5 0 01-.5.5h-22a.5.5 0 01-.5-.5V7.593l10.48 6.21a2 2 0 002.04 0L25 7.593V20.5zm-10.99-7.557L25 6.43V4.5a.5.5 0 00-.5-.5h-22a.5.5 0 00-.5.5v1.93l10.99 6.513a1 1 0 001.02 0z" fill="#0A181B"/>
  <path d="M2 7.593l.102-.173-.302-.179v.352H2zm10.48 6.21l-.102.172.102-.172zm2.04 0l.101.172-.102-.172zM25 7.593h.2v-.351l-.302.178.102.173zm0-1.163l.102.172.098-.058V6.43H25zm-10.99 6.513l.102.172-.102-.172zM25 4.5h.2-.2zm-.5-.5v-.2.2zm-22 0v-.2.2zm-.5.5h-.2.2zm0 1.93h-.2v.114l.098.058L2 6.43zm10.99 6.513l-.101.172.102-.172zM2.5 3.2h22v-.4h-22v.4zM1.2 4.5a1.3 1.3 0 011.3-1.3v-.4A1.7 1.7 0 00.8 4.5h.4zm0 16v-16H.8v16h.4zm1.3 1.3a1.3 1.3 0 01-1.3-1.3H.8a1.7 1.7 0 001.7 1.7v-.4zm22 0h-22v.4h22v-.4zm1.3-1.3a1.3 1.3 0 01-1.3 1.3v.4a1.7 1.7 0 001.7-1.7h-.4zm0-16v16h.4v-16h-.4zm-1.3-1.3a1.3 1.3 0 011.3 1.3h.4a1.7 1.7 0 00-1.7-1.7v.4zm0 18a.7.7 0 00.7-.7h-.4a.3.3 0 01-.3.3v.4zm-22 0h22v-.4h-22v.4zm-.7-.7a.7.7 0 00.7.7v-.4a.3.3 0 01-.3-.3h-.4zm0-12.907V20.5h.4V7.593h-.4zm10.782 6.038l-10.48-6.21-.204.344 10.48 6.21.204-.344zm1.835 0a1.8 1.8 0 01-1.835 0l-.204.344a2.2 2.2 0 002.243 0l-.204-.344zm10.481-6.21l-10.48 6.21.203.344 10.481-6.21-.204-.345zM25.2 20.5V7.593h-.4V20.5h.4zm-.302-14.242l-10.99 6.513.204.344 10.99-6.513-.204-.344zM24.8 4.5v1.93h.4V4.5h-.4zm-.3-.3a.3.3 0 01.3.3h.4a.7.7 0 00-.7-.7v.4zm-22 0h22v-.4h-22v.4zm-.3.3a.3.3 0 01.3-.3v-.4a.7.7 0 00-.7.7h.4zm0 1.93V4.5h-.4v1.93h.4zm10.893 6.341L2.102 6.258l-.204.344 10.99 6.513.205-.344zm.815 0a.8.8 0 01-.815 0l-.204.344a1.2 1.2 0 001.223 0l-.204-.344z" fill="#0A181B"/>
</svg>