<svg width="24" height="25" fill="none"
  xmlns="http://www.w3.org/2000/svg">
  <path fill-rule="evenodd" clip-rule="evenodd" d="M6.643 0h10.41c3.535 0 6.411 2.975 6.411 6.632v10.769c0 3.657-2.876 6.632-6.411 6.632H6.643c-3.535 0-6.41-2.975-6.41-6.632V6.632C.232 2.975 3.107 0 6.642 0zm10.41 21.9c2.398 0 4.35-2.018 4.35-4.5V6.633c0-2.481-1.952-4.5-4.35-4.5H6.643c-2.398 0-4.35 2.019-4.35 4.5v10.769c0 2.48 1.952 4.5 4.35 4.5h10.41z" fill="white"/>
  <path fill-rule="evenodd" clip-rule="evenodd" d="M5.84 11.616a6.015 6.015 0 016.008-6.009 6.015 6.015 0 016.008 6.009 6.015 6.015 0 01-6.008 6.008 6.015 6.015 0 01-6.008-6.008zm2.069 0a3.944 3.944 0 003.94 3.94 3.944 3.944 0 003.938-3.94 3.944 3.944 0 00-3.939-3.94 3.944 3.944 0 00-3.94 3.94z" fill="white"/>
  <path d="M17.856 4.006c-.42 0-.834.17-1.131.469a1.61 1.61 0 00-.47 1.133c0 .421.171.835.47 1.133.297.297.71.47 1.131.47.423 0 .835-.173 1.134-.47.298-.298.469-.712.469-1.133 0-.422-.17-.836-.47-1.133a1.61 1.61 0 00-1.133-.47z" fill="white"/>
</svg>