<svg width="32" height="32" fill="none"
  xmlns="http://www.w3.org/2000/svg">
  <path d="M16 5.56c5.76 0 10.44 4.262 10.44 9.502 0 5.239-4.68 9.504-10.44 9.504a11.47 11.47 0 01-2.81-.35l-.572-.145-.523.269-2.16 1.111v-2.625l-.614-.48c-2.393-1.803-3.761-4.462-3.761-7.284 0-5.24 4.68-9.502 10.44-9.502zM16 4C9.374 4 4 8.954 4 15.062c0 3.436 1.7 6.506 4.366 8.536V28l4.44-2.275c1.044.266 2.117.4 3.194.4 6.626 0 12-4.953 12-11.061S22.626 4 16 4z" fill="white"/>
  <path d="M9 18.737L14.812 12l2.951 3.211L23 12.118 17.166 19l-2.863-3.38L9 18.736z" fill="white"/>
</svg>