<svg width="64" height="65" fill="none"
  xmlns="http://www.w3.org/2000/svg">
  <path fill-rule="evenodd" clip-rule="evenodd" d="M58.88 20.48a5.057 5.057 0 00-2.343.592L35.795 5.565c.005-.055.012-.11.02-.164.012-.092.025-.184.025-.281a5.12 5.12 0 10-10.24 0c.008.213.03.425.064.635L7.552 21.12a5.067 5.067 0 00-2.432-.64 5.116 5.116 0 00-.942 10.145l8.693 24.837.013.018a5.1 5.1 0 009.933 2.251l18.257 1.014A6.393 6.393 0 1051.94 53.14l7.88-22.516a5.116 5.116 0 00-.94-10.145zM30.72 2.56a2.56 2.56 0 110 5.12 2.56 2.56 0 010-5.12zm.106 7.679a5.08 5.08 0 01-4.14-1.999L9.44 22.874c.521.814.799 1.76.8 2.726a.806.806 0 01-.01.114.944.944 0 00-.01.1l18.743 5.704a6.353 6.353 0 0111.022-.32l13.827-5.094a4.685 4.685 0 00-.021-.17c-.015-.11-.03-.22-.03-.334 0-.99.29-1.958.832-2.786L34.884 8.08a5.08 5.08 0 01-4.058 2.159zM38.4 34.56a3.84 3.84 0 11-7.68 0 3.84 3.84 0 017.68 0zM5.12 23.04a2.56 2.56 0 100 5.12 2.56 2.56 0 000-5.12zm12.8 35.84a2.56 2.56 0 110-5.12 2.56 2.56 0 010 5.12zm25.6-1.28a3.84 3.84 0 107.68 0 3.84 3.84 0 00-7.68 0zm6.223-5.931a6.369 6.369 0 00-8.615 4.516l-18.227-1.012a5.085 5.085 0 00-8.354-2.677L6.816 30.41a5.108 5.108 0 002.657-2.146l18.746 5.705c-.006.07-.016.14-.025.21a2.816 2.816 0 00-.034.381 6.4 6.4 0 1012.8 0 6.34 6.34 0 00-.097-.957l13.813-5.09a5.118 5.118 0 002.509 1.897L49.743 51.67zM56.32 25.6a2.56 2.56 0 105.12 0 2.56 2.56 0 00-5.12 0z" fill="#30CEC2" fill-opacity=".4"/>
</svg>