<svg width="40" height="40" fill="none"
  xmlns="http://www.w3.org/2000/svg">
  <path fill-rule="evenodd" clip-rule="evenodd" d="M37.6 4.8H32v-4a.8.8 0 00-.8-.8H8.8a.8.8 0 00-.8.8v4H2.4a.8.8 0 00-.8.8v4a7.987 7.987 0 006.62 7.861 12.008 12.008 0 008.318 9.227L15.358 32h-2.236a1.6 1.6 0 00-1.486 1.005l-1.92 4.8A1.6 1.6 0 0011.202 40h17.596a1.6 1.6 0 001.486-2.195l-1.92-4.8A1.6 1.6 0 0026.878 32h-2.236l-1.18-5.312a12.01 12.01 0 008.319-9.227A7.987 7.987 0 0038.4 9.6v-4a.8.8 0 00-.8-.8zM8 15.2v.598A6.412 6.412 0 013.2 9.6V6.4H8v8.8zm20.798 23.2l-1.92-4.8H13.122l-1.92 4.8h17.596zm-11.8-6.4l1.103-4.965A12 12 0 0020 27.2c.636-.005 1.271-.06 1.898-.164L23.002 32h-6.005zM30.4 15.2V1.6H9.6v13.6c0 5.744 4.656 10.4 10.4 10.4 5.744 0 10.4-4.656 10.4-10.4zm6.4-5.6a6.412 6.412 0 01-4.8 6.198V6.4h4.8v3.2zM15.2 35.2a.8.8 0 100 1.6h9.6a.8.8 0 000-1.6h-9.6z" fill="#30CEC2" fill-opacity=".4"/>
</svg>