<svg width="64" height="62" fill="none"
  xmlns="http://www.w3.org/2000/svg">
  <path fill-rule="evenodd" clip-rule="evenodd" d="M48.64 5.68h12.8A2.56 2.56 0 0164 8.24v51.2A2.56 2.56 0 0161.44 62H2.56A2.56 2.56 0 010 59.44V8.24a2.56 2.56 0 012.56-2.56h12.8V1.84a1.28 1.28 0 012.56 0v3.84h28.16V1.84a1.28 1.28 0 012.56 0v3.84zM2.56 59.44h58.88v-38.4H2.56v38.4zm58.88-40.96H2.56V8.24h58.88v10.24zM46.08 40.24c0 7.776-6.304 14.08-14.08 14.08s-14.08-6.304-14.08-14.08c0-7.777 6.304-14.08 14.08-14.08s14.08 6.303 14.08 14.08zM32 28.72c6.362 0 11.52 5.157 11.52 11.52 0 6.362-5.158 11.52-11.52 11.52-6.362 0-11.52-5.158-11.52-11.52.007-6.36 5.16-11.513 11.52-11.52zm-1.28 12.8c0 .402.19.782.512 1.023l5.12 3.84a1.28 1.28 0 101.536-2.047L33.28 40.88v-5.76a1.28 1.28 0 10-2.56 0v6.4z" fill="#30CEC2" fill-opacity=".4"/>
</svg>