<svg width="29" height="20" fill="none"
  xmlns="http://www.w3.org/2000/svg">
  <path fill-rule="evenodd" clip-rule="evenodd" d="M25.09.588a3.477 3.477 0 012.47 2.42c.602 2.15.579 6.628.579 6.628s0 4.456-.578 6.605a3.477 3.477 0 01-2.471 2.42c-2.195.566-10.971.566-10.971.566s-8.754 0-10.97-.588a3.478 3.478 0 01-2.472-2.42C.099 14.092.099 9.614.099 9.614s0-4.457.578-6.605C1 1.832 1.97.882 3.148.566 5.342 0 14.118 0 14.118 0s8.777 0 10.972.588zm-6.518 9.026l-7.257 4.12v-8.24l7.257 4.12z" fill="#ff0000"/>
</svg>